<svg width="66" height="57" viewBox="0 0 66 57" fill="none" xmlns="http://www.w3.org/2000/svg">
<path d="M26.8203 7.95087C29.342 14.5483 31.9196 19.4571 35.3438 23.0915C38.6445 26.595 42.6723 28.8537 48.0244 30.364C42.2641 31.6801 37.7881 33.5439 34.3086 36.8298C30.8299 40.1149 28.4451 44.7254 26.6689 51.3376C25.5671 44.8439 23.679 40.0877 20.335 36.6794C17.0304 33.3116 12.4235 31.379 6.12598 30.2516C12.1808 28.8041 16.7131 26.7632 20.0352 23.405C23.5701 19.8315 25.6175 14.8865 26.8203 7.95087Z" stroke="white" stroke-width="2"/>
<path d="M51.1455 3.4502C52.4231 6.21734 53.781 8.39034 55.5166 10.0732C57.1171 11.6252 58.9958 12.7176 61.3291 13.5049C58.8033 14.1665 56.723 15.0871 55.0244 16.5312C53.2606 18.0309 51.9832 20.0317 51.0039 22.709C50.3376 20.1067 49.3001 18.0632 47.6367 16.5127C46.0464 15.0304 43.9673 14.0753 41.3164 13.4482C43.9007 12.711 45.9575 11.7049 47.5518 10.2002C49.3243 8.5272 50.4362 6.32565 51.1455 3.4502Z" stroke="white" stroke-width="2"/>
</svg>
