<svg width="39" height="43" viewBox="0 0 39 43" fill="none" xmlns="http://www.w3.org/2000/svg">
<path d="M9.67696 7.02728L7.67694 8.58906C4.64364 10.9577 3.12696 12.1421 2.31348 13.812C1.5 15.4819 1.5 17.411 1.5 21.2692V25.4534C1.5 33.026 1.5 36.8124 3.84314 39.165C5.72932 41.0586 8.54086 41.428 13.5 41.5V33.5114C13.5 31.6476 13.5 30.7156 13.8045 29.9806C14.2105 29.0004 14.9892 28.2218 15.9692 27.8158C16.7044 27.5114 17.6362 27.5114 19.5 27.5114C21.3638 27.5114 22.2956 27.5114 23.0308 27.8158C24.0108 28.2218 24.7896 29.0004 25.1956 29.9806C25.5 30.7156 25.5 31.6476 25.5 33.5114V41.5C30.4592 41.428 33.2706 41.0586 35.1568 39.165C37.5 36.8124 37.5 33.026 37.5 25.4534V21.2692C37.5 17.411 37.5 15.4819 36.6866 13.812C35.873 12.1421 34.3564 10.9577 31.323 8.58906L29.323 7.02728C24.6042 3.34242 22.2448 1.5 19.5 1.5C16.7552 1.5 14.3957 3.34242 9.67696 7.02728Z" stroke="white" stroke-width="3" stroke-linejoin="round"/>
</svg>
