<svg width="25" height="225" viewBox="0 0 25 225" fill="none" xmlns="http://www.w3.org/2000/svg">
<path d="M20.4146 3.36L24.7896 -1.66893e-06V24.5H20.4146V8.89L16.1096 12.18L12.5396 14.945L8.96955 12.18L4.66455 8.89V24.5H0.289551V-1.66893e-06L4.66455 3.36L12.5396 9.415L20.4146 3.36ZM12.537 40C19.292 40 24.787 45.495 24.787 52.25C24.787 59.005 19.292 64.5 12.537 64.5C5.78195 64.5 0.286953 59.005 0.286953 52.25C0.286953 45.495 5.78195 40 12.537 40ZM12.537 60.125C16.877 60.125 20.412 56.59 20.412 52.25C20.412 47.91 16.877 44.375 12.537 44.375C8.19695 44.375 4.66195 47.91 4.66195 52.25C4.66195 56.59 8.19695 60.125 12.537 60.125ZM20.0896 80H24.9896L22.7496 84.375L12.4946 104.5L2.23957 84.375L-0.000429668 80H4.89957L7.13957 84.375L12.4946 94.875L17.8496 84.375L20.0896 80ZM14.7305 144.5H10.3555V120H14.7305V144.5ZM12.537 160C19.292 160 24.787 165.495 24.787 172.25C24.787 179.005 19.292 184.5 12.537 184.5C5.78195 184.5 0.286953 179.005 0.286953 172.25C0.286953 165.495 5.78195 160 12.537 160ZM12.537 180.125C16.877 180.125 20.412 176.59 20.412 172.25C20.412 167.91 16.877 164.375 12.537 164.375C8.19695 164.375 4.66195 167.91 4.66195 172.25C4.66195 176.59 8.19695 180.125 12.537 180.125ZM20.4146 200L24.7896 200.035V224.535L20.4146 221.175L4.66455 209.03V224.535H0.289551V200.105L4.66455 203.465L20.4146 215.61V200Z" fill="white"/>
</svg>
