<svg width="60" height="60" viewBox="0 0 60 60" fill="none" xmlns="http://www.w3.org/2000/svg">
<path d="M49 52.5L33.25 36.75C32 37.75 30.5625 38.5417 28.9375 39.125C27.3125 39.7083 25.5833 40 23.75 40C19.2083 40 15.3646 38.4271 12.2188 35.2812C9.07292 32.1354 7.5 28.2917 7.5 23.75C7.5 19.2083 9.07292 15.3646 12.2188 12.2188C15.3646 9.07292 19.2083 7.5 23.75 7.5C28.2917 7.5 32.1354 9.07292 35.2812 12.2188C38.4271 15.3646 40 19.2083 40 23.75C40 25.5833 39.7083 27.3125 39.125 28.9375C38.5417 30.5625 37.75 32 36.75 33.25L52.5 49L49 52.5ZM23.75 35C26.875 35 29.5312 33.9062 31.7188 31.7188C33.9062 29.5312 35 26.875 35 23.75C35 20.625 33.9062 17.9688 31.7188 15.7812C29.5312 13.5938 26.875 12.5 23.75 12.5C20.625 12.5 17.9688 13.5938 15.7812 15.7812C13.5938 17.9688 12.5 20.625 12.5 23.75C12.5 26.875 13.5938 29.5312 15.7812 31.7188C17.9688 33.9062 20.625 35 23.75 35Z" fill="white"/>
</svg>
